<?xml version="1.0" standalone="no"?><!DOCTYPE svg PUBLIC "-//W3C//DTD SVG 1.1//EN" "http://www.w3.org/Graphics/SVG/1.1/DTD/svg11.dtd"><svg t="1689593074244" class="icon" viewBox="0 0 1024 1024" version="1.1" xmlns="http://www.w3.org/2000/svg" p-id="3000" xmlns:xlink="http://www.w3.org/1999/xlink" width="200" height="200"><path d="M930.8 716.1H93.2c-16.7-1-29.7-15-28.9-32.2L79 342c0.7-16 14.3-28.9 30.4-28.9h805.3c16.1 0 29.7 12.9 30.4 28.9l14.6 342c0.8 17.1-12.2 31.1-28.9 32.1z" fill="#101780" p-id="3001"></path><path d="M928.3 675.9H95.7c-17.2 0-30.5-13.9-29.8-30.9l13.2-308.2c0.7-16 14.7-28.9 31.2-28.9h803.2c16.6 0 30.6 12.9 31.2 28.9L958.1 645c0.7 17.1-12.6 30.9-29.8 30.9z" fill="#0008D9" p-id="3002"></path><path d="M778.9 385a5.3 5.5 0 1 0 10.6 0 5.3 5.5 0 1 0-10.6 0Z" fill="#FFE164" p-id="3003"></path><path d="M833.8 385a5.3 5.5 0 1 0 10.6 0 5.3 5.5 0 1 0-10.6 0Z" fill="#80C8FF" p-id="3004"></path><path d="M888.7 385a5.3 5.5 0 1 0 10.6 0 5.3 5.5 0 1 0-10.6 0Z" fill="#80C8FF" p-id="3005"></path><path d="M154.7 366.3h-39.6c-2.2 0-3.9-1.7-3.8-3.9l1.6-33.3c0.1-2.1 2-3.9 4.2-3.9h39.4c2.2 0 3.9 1.7 3.8 3.9l-1.4 33.3c-0.1 2.2-2 3.9-4.2 3.9zM151.5 441.1h-39.9c-2.2 0-4-1.8-3.9-4l1.6-33.8c0.1-2.2 2-3.9 4.2-3.9h39.7c2.2 0 4 1.8 3.9 3.9l-1.4 33.8c0 2.2-1.9 4-4.2 4zM203.2 493.3h-94c-2.3 0-4-1.8-3.9-4l1.6-34.3c0.1-2.2 2-4 4.2-4h93.5c2.2 0 4 1.8 3.9 4l-1.2 34.3c0 2.3-1.9 4-4.1 4zM231 546.2H106.7c-2.3 0-4-1.8-3.9-4.1l1.6-34.7c0.1-2.2 2-4 4.3-4h123.7c2.3 0 4 1.8 4 4l-1.1 34.7c-0.2 2.3-2.1 4.1-4.3 4.1z" fill="#5297CC" p-id="3006"></path><path d="M269.1 598.4H104.2c-2.3 0-4-1.8-3.9-4.1l1.7-35.1c0.1-2.2 2-4.1 4.3-4.1h164.1c2.3 0 4.1 1.8 4 4.1l-1 35.1c-0.1 2.3-2 4.1-4.3 4.1z" fill="#CCA300" p-id="3007"></path><path d="M583.3 653.9H282.6c-2.3 0-4.1-1.9-4-4.2l1-35.5c0.1-2.3 2-4.1 4.2-4.1H583c2.3 0 4.1 1.8 4.2 4.1l0.3 35.5c-0.1 2.4-1.9 4.2-4.2 4.2zM205.3 441.1h-39.9c-2.2 0-4-1.8-3.9-4l1.4-33.8c0.1-2.2 2-3.9 4.2-3.9h39.7c2.2 0 4 1.8 3.9 3.9l-1.2 33.8c-0.1 2.2-2 4-4.2 4zM259.1 441.1h-39.9c-2.2 0-4-1.8-3.9-4l1.2-33.8c0.1-2.2 1.9-3.9 4.2-3.9h39.7c2.2 0 4 1.8 3.9 3.9l-1 33.8c-0.1 2.2-2 4-4.2 4zM147.1 653.9h-45.5c-2.3 0-4.1-1.9-4-4.2l1.7-35.5c0.1-2.3 2-4.1 4.3-4.1H149c2.3 0 4.1 1.8 4 4.1l-1.5 35.5c-0.1 2.4-2.1 4.2-4.4 4.2zM207.4 653.9h-45.5c-2.3 0-4.1-1.9-4-4.2l1.4-35.5c0.1-2.3 2-4.1 4.3-4.1h45.2c2.3 0 4.1 1.8 4 4.1l-1.2 35.5c0 2.4-2 4.2-4.2 4.2zM267.6 653.9h-45.5c-2.3 0-4.1-1.9-4-4.2l1.2-35.5c0.1-2.3 2-4.1 4.3-4.1h45.2c2.3 0 4.1 1.8 4 4.1l-1 35.5c0 2.4-1.9 4.2-4.2 4.2zM639.4 653.9h-40.5c-2.3 0-4.2-1.9-4.2-4.2l-0.3-35.5c0-2.3 1.8-4.1 4.1-4.1h40.3c2.3 0 4.2 1.8 4.2 4.1l0.5 35.5c0 2.4-1.8 4.2-4.1 4.2zM694 653.9h-40.5c-2.3 0-4.2-1.9-4.2-4.2l-0.5-35.5c0-2.3 1.8-4.1 4.1-4.1h40.3c2.3 0 4.2 1.8 4.2 4.1l0.7 35.5c0 2.4-1.8 4.2-4.1 4.2zM748.6 653.9h-40.5c-2.3 0-4.2-1.9-4.2-4.2l-0.8-35.5c0-2.3 1.8-4.1 4-4.1h40.3c2.3 0 4.2 1.8 4.2 4.1l0.9 35.5c0.2 2.4-1.6 4.2-3.9 4.2zM312.8 441.1h-39.9c-2.2 0-4-1.8-3.9-4l1-33.8c0.1-2.2 1.9-3.9 4.1-3.9h39.7c2.2 0 4 1.8 3.9 3.9l-0.8 33.8c0 2.2-1.8 4-4.1 4zM366.6 441.1h-39.9c-2.2 0-4-1.8-4-4l0.8-33.8c0-2.2 1.9-3.9 4.1-3.9h39.7c2.2 0 4 1.8 4 3.9l-0.6 33.8c0 2.2-1.9 4-4.1 4zM420.4 441.1h-39.9c-2.2 0-4-1.8-4-4l0.5-33.8c0-2.2 1.9-3.9 4.1-3.9h39.7c2.2 0 4 1.8 4 3.9l-0.4 33.8c0 2.2-1.8 4-4 4zM474.1 441.1h-39.9c-2.2 0-4-1.8-4-4l0.3-33.8c0-2.2 1.8-3.9 4.1-3.9h39.7c2.2 0 4 1.8 4 3.9l-0.1 33.8c0 2.2-1.8 4-4.1 4zM527.9 441.1H488c-2.2 0-4-1.8-4-4l0.1-33.8c0-2.2 1.8-3.9 4-3.9h39.7c2.2 0 4 1.8 4 3.9l0.1 33.8c0.1 2.2-1.7 4-4 4zM581.7 441.1h-39.9c-2.2 0-4.1-1.8-4.1-4l-0.1-33.8c0-2.2 1.8-3.9 4-3.9h39.7c2.2 0 4 1.8 4.1 3.9l0.3 33.8c0 2.2-1.8 4-4 4zM635.5 441.1h-39.9c-2.2 0-4.1-1.8-4.1-4l-0.3-33.8c0-2.2 1.8-3.9 4-3.9h39.7c2.2 0 4.1 1.8 4.1 3.9l0.5 33.8c0 2.2-1.8 4-4 4zM743 441.1h-94.1c-2.2 0-4.1-1.8-4.1-4l-0.5-33.8c0-2.2 1.7-3.9 4-3.9H742c2.2 0 4.1 1.8 4.1 3.9l0.9 33.8c0 2.2-1.8 4-4 4zM257.5 493.3h-40.2c-2.3 0-4-1.8-3.9-4l1.2-34.3c0.1-2.2 2-4 4.2-4h40c2.2 0 4 1.8 3.9 4l-1 34.3c-0.1 2.3-1.9 4-4.2 4zM311.6 493.3h-40.2c-2.3 0-4-1.8-4-4l1-34.3c0.1-2.2 1.9-4 4.2-4h40c2.2 0 4 1.8 4 4l-0.8 34.3c-0.1 2.3-1.9 4-4.2 4zM365.7 493.3h-40.2c-2.3 0-4-1.8-4-4l0.8-34.3c0-2.2 1.9-4 4.1-4h40c2.2 0 4 1.8 4 4l-0.6 34.3c0 2.3-1.8 4-4.1 4zM419.8 493.3h-40.2c-2.3 0-4-1.8-4-4l0.6-34.3c0-2.2 1.9-4 4.1-4h40c2.2 0 4 1.8 4 4l-0.4 34.3c0 2.3-1.8 4-4.1 4zM473.9 493.3h-40.2c-2.3 0-4.1-1.8-4-4l0.3-34.3c0-2.2 1.9-4 4.1-4h40c2.2 0 4.1 1.8 4 4l-0.1 34.3c0 2.3-1.9 4-4.1 4zM528 493.3h-40.2c-2.3 0-4.1-1.8-4.1-4l0.1-34.3c0-2.2 1.8-4 4.1-4h40c2.2 0 4.1 1.8 4.1 4l0.1 34.3c0 2.3-1.9 4-4.1 4zM582.1 493.3h-40.2c-2.3 0-4.1-1.8-4.1-4l-0.1-34.3c0-2.2 1.8-4 4-4h40c2.2 0 4.1 1.8 4.1 4l0.3 34.3c0 2.3-1.8 4-4 4zM636.2 493.3H596c-2.3 0-4.1-1.8-4.1-4l-0.3-34.3c0-2.2 1.8-4 4-4h40c2.2 0 4.1 1.8 4.1 4l0.5 34.3c0 2.3-1.8 4-4 4zM690.3 493.3h-40.2c-2.3 0-4.1-1.8-4.1-4l-0.5-34.3c0-2.2 1.8-4 4-4h40c2.2 0 4.1 1.8 4.1 4l0.7 34.3c0 2.3-1.8 4-4 4zM744.4 493.3h-40.2c-2.3 0-4.1-1.8-4.2-4l-0.7-34.3c0-2.2 1.7-4 4-4h40c2.2 0 4.1 1.8 4.2 4l0.9 34.3c0 2.3-1.8 4-4 4zM285.6 546.2h-40.4c-2.3 0-4-1.8-4-4.1l1.1-34.7c0.1-2.2 2-4 4.2-4h40.2c2.3 0 4 1.8 4 4l-0.9 34.7c0 2.3-1.9 4.1-4.2 4.1zM340 546.2h-40.4c-2.3 0-4.1-1.8-4-4.1l0.9-34.7c0.1-2.2 1.9-4 4.2-4h40.2c2.3 0 4 1.8 4 4l-0.7 34.7c0 2.3-1.9 4.1-4.2 4.1zM394.5 546.2h-40.4c-2.3 0-4.1-1.8-4-4.1l0.7-34.7c0-2.2 1.9-4 4.2-4h40.2c2.3 0 4.1 1.8 4 4l-0.5 34.7c-0.1 2.3-2 4.1-4.2 4.1zM448.9 546.2h-40.4c-2.3 0-4.1-1.8-4.1-4.1l0.4-34.7c0-2.2 1.9-4 4.1-4h40.2c2.3 0 4.1 1.8 4.1 4l-0.2 34.7c0 2.3-1.8 4.1-4.1 4.1zM503.3 546.2h-40.4c-2.3 0-4.1-1.8-4.1-4.1l0.2-34.7c0-2.2 1.9-4 4.1-4h40.2c2.3 0 4.1 1.8 4.1 4v34.7c0 2.3-1.8 4.1-4.1 4.1zM557.7 546.2h-40.4c-2.3 0-4.1-1.8-4.1-4.1v-34.7c0-2.2 1.8-4 4.1-4h40.2c2.3 0 4.1 1.8 4.1 4l0.2 34.7c0 2.3-1.8 4.1-4.1 4.1zM612.2 546.2h-40.4c-2.3 0-4.1-1.8-4.1-4.1l-0.2-34.7c0-2.2 1.8-4 4.1-4h40.2c2.3 0 4.1 1.8 4.1 4l0.4 34.7c-0.1 2.3-1.9 4.1-4.1 4.1zM666.6 546.2h-40.4c-2.3 0-4.1-1.8-4.2-4.1l-0.4-34.7c0-2.2 1.8-4 4-4h40.2c2.3 0 4.1 1.8 4.2 4l0.6 34.7c0.1 2.3-1.8 4.1-4 4.1zM745.5 546.2h-64.9c-2.3 0-4.1-1.8-4.2-4.1l-0.6-34.7c0-2.2 1.8-4 4-4h64.6c2.3 0 4.1 1.8 4.2 4l0.9 34.7c0.1 2.3-1.7 4.1-4 4.1zM324.1 598.4h-40.6c-2.3 0-4.1-1.8-4-4.1l0.9-35.1c0.1-2.2 1.9-4.1 4.2-4.1H325c2.3 0 4.1 1.8 4 4.1l-0.7 35.1c-0.1 2.3-2 4.1-4.2 4.1zM378.8 598.4h-40.6c-2.3 0-4.1-1.8-4-4.1l0.7-35.1c0-2.2 1.9-4.1 4.2-4.1h40.4c2.3 0 4.1 1.8 4 4.1l-0.5 35.1c0 2.3-1.9 4.1-4.2 4.1zM433.5 598.4h-40.6c-2.3 0-4.1-1.8-4.1-4.1l0.5-35.1c0-2.2 1.9-4.1 4.2-4.1H434c2.3 0 4.1 1.8 4.1 4.1l-0.3 35.1c-0.1 2.3-2 4.1-4.3 4.1zM488.3 598.4h-40.6c-2.3 0-4.1-1.8-4.1-4.1l0.3-35.1c0-2.2 1.9-4.1 4.1-4.1h40.4c2.3 0 4.1 1.8 4.1 4.1l-0.1 35.1c0 2.3-1.8 4.1-4.1 4.1zM543 598.4h-40.6c-2.3 0-4.1-1.8-4.1-4.1l0.1-35.1c0-2.2 1.8-4.1 4.1-4.1h40.4c2.3 0 4.1 1.8 4.1 4.1l0.1 35.1c0.1 2.3-1.8 4.1-4.1 4.1zM597.8 598.4h-40.6c-2.3 0-4.1-1.8-4.1-4.1l-0.1-35.1c0-2.2 1.8-4.1 4.1-4.1h40.4c2.3 0 4.1 1.8 4.1 4.1l0.3 35.1c0 2.3-1.8 4.1-4.1 4.1zM652.5 598.4h-40.6c-2.3 0-4.1-1.8-4.2-4.1l-0.4-35.1c0-2.2 1.8-4.1 4.1-4.1h40.4c2.3 0 4.1 1.8 4.2 4.1l0.6 35.1c0 2.3-1.8 4.1-4.1 4.1z" fill="#5297CC" p-id="3008"></path><path d="M747.1 598.4h-80.5c-2.3 0-4.2-1.8-4.2-4.1l-0.6-35.1c0-2.2 1.8-4.1 4-4.1H746c2.3 0 4.2 1.8 4.2 4.1l0.9 35.1c0.1 2.3-1.7 4.1-4 4.1z" fill="#CCA300" p-id="3009"></path><path d="M258.1 366.3h-39.6c-2.2 0-4-1.7-3.9-3.9l1.2-33.3c0.1-2.1 1.9-3.9 4.1-3.9h39.4c2.2 0 3.9 1.7 3.9 3.9l-1 33.3c0 2.2-1.9 3.9-4.1 3.9zM313.9 366.3h-39.6c-2.2 0-4-1.7-3.9-3.9l1-33.3c0.1-2.1 1.9-3.9 4.1-3.9h39.4c2.2 0 4 1.7 3.9 3.9l-0.8 33.3c-0.1 2.2-1.9 3.9-4.1 3.9zM369.6 366.3H330c-2.2 0-4-1.7-3.9-3.9l0.7-33.3c0-2.1 1.9-3.9 4.1-3.9h39.4c2.2 0 4 1.7 3.9 3.9l-0.6 33.3c0.1 2.2-1.7 3.9-4 3.9zM425.4 366.3h-39.6c-2.2 0-4-1.7-4-3.9l0.5-33.3c0-2.1 1.9-3.9 4.1-3.9h39.4c2.2 0 4 1.7 4 3.9l-0.3 33.3c0 2.2-1.9 3.9-4.1 3.9zM531.4 366.3h-39.6c-2.2 0-4-1.7-4-3.9l0.1-33.3c0-2.1 1.8-3.9 4-3.9h39.4c2.2 0 4 1.7 4 3.9l0.1 33.3c0 2.2-1.8 3.9-4 3.9zM587.2 366.3h-39.6c-2.2 0-4-1.7-4-3.9l-0.1-33.3c0-2.1 1.8-3.9 4-3.9h39.4c2.2 0 4 1.7 4 3.9l0.3 33.3c0 2.2-1.8 3.9-4 3.9zM642.9 366.3h-39.6c-2.2 0-4-1.7-4.1-3.9l-0.3-33.3c0-2.1 1.8-3.9 4-3.9h39.4c2.2 0 4 1.7 4.1 3.9l0.5 33.3c0 2.2-1.7 3.9-4 3.9zM698.7 366.3h-39.6c-2.2 0-4-1.7-4.1-3.9l-0.5-33.3c0-2.1 1.7-3.9 3.9-3.9h39.4c2.2 0 4 1.7 4.1 3.9l0.7 33.3c0.1 2.2-1.7 3.9-3.9 3.9zM804.7 366.3h-39.6c-2.2 0-4.1-1.7-4.1-3.9l-1-33.3c-0.1-2.1 1.7-3.9 3.9-3.9h39.4c2.2 0 4.1 1.7 4.1 3.9l1.1 33.3c0.2 2.2-1.6 3.9-3.8 3.9zM860.5 366.3h-39.6c-2.2 0-4.1-1.7-4.2-3.9l-1.2-33.3c-0.1-2.1 1.7-3.9 3.9-3.9h39.4c2.2 0 4.1 1.7 4.2 3.9l1.4 33.3c0 2.2-1.7 3.9-3.9 3.9zM916.2 366.3h-39.6c-2.2 0-4.1-1.7-4.2-3.9l-1.4-33.3c-0.1-2.1 1.6-3.9 3.8-3.9h39.4c2.2 0 4.1 1.7 4.2 3.9l1.6 33.3c0.2 2.2-1.5 3.9-3.8 3.9zM807.2 441.1h-39.9c-2.2 0-4.1-1.8-4.2-4l-1-33.8c-0.1-2.2 1.7-3.9 3.9-3.9h39.7c2.2 0 4.1 1.8 4.2 3.9l1.2 33.8c0.1 2.2-1.6 4-3.9 4zM863.5 441.1h-39.9c-2.2 0-4.1-1.8-4.2-4l-1.2-33.8c-0.1-2.2 1.7-3.9 3.9-3.9h39.7c2.2 0 4.1 1.8 4.2 3.9l1.4 33.8c0.1 2.2-1.7 4-3.9 4zM919.7 441.1h-39.9c-2.2 0-4.1-1.8-4.2-4l-1.4-33.8c-0.1-2.2 1.6-3.9 3.9-3.9h39.7c2.2 0 4.1 1.8 4.2 3.9l1.6 33.8c0.1 2.2-1.6 4-3.9 4zM808.9 492h-40.2c-2.3 0-4.1-1.8-4.2-4l-1-34.2c-0.1-2.2 1.7-4 3.9-4h40c2.2 0 4.1 1.8 4.2 4l1.2 34.2c0.2 2.2-1.6 4-3.9 4zM865.5 492h-40.2c-2.3 0-4.1-1.8-4.2-4l-1.2-34.2c-0.1-2.2 1.7-4 3.9-4h40c2.2 0 4.1 1.8 4.2 4l1.4 34.2c0.1 2.2-1.6 4-3.9 4zM922.1 492H882c-2.3 0-4.2-1.8-4.2-4l-1.4-34.2c-0.1-2.2 1.7-4 3.9-4h40c2.2 0 4.1 1.8 4.2 4L926 488c0.1 2.2-1.6 4-3.9 4zM814.3 652.6h-40.9c-2.3 0-4.2-1.9-4.3-4.2l-1-35.5c-0.1-2.3 1.7-4.1 4-4.1h40.7c2.3 0 4.2 1.8 4.3 4.1l1.2 35.5c0.1 2.3-1.7 4.2-4 4.2zM872 652.6h-40.9c-2.3 0-4.2-1.9-4.3-4.2l-1.2-35.5c-0.1-2.3 1.7-4.1 4-4.1h40.7c2.3 0 4.2 1.8 4.3 4.1l1.4 35.5c0.1 2.3-1.7 4.2-4 4.2zM869.9 599.8h-40.7c-2.3 0-4.2-1.8-4.3-4.1l-1.2-35.1c-0.1-2.2 1.7-4.1 4-4.1h40.5c2.3 0 4.2 1.8 4.3 4.1l1.4 35.1c0 2.2-1.8 4.1-4 4.1zM929.6 652.6h-40.9c-2.3 0-4.2-1.9-4.3-4.2l-1.5-35.5c-0.1-2.3 1.7-4.1 4-4.1h40.7c2.3 0 4.2 1.8 4.3 4.1l1.7 35.5c0.1 2.3-1.7 4.2-4 4.2z" fill="#5297CC" p-id="3010"></path><path d="M226.7 537.7H111.4c-2.3 0-4-1.8-3.9-3.9l1.3-25.9c0.1-2.1 2-3.9 4.3-3.9h114.8c2.3 0 4 1.7 4 3.9l-0.9 25.9c-0.2 2.2-2.1 3.9-4.3 3.9zM281.3 537.7h-31.5c-2.3 0-4-1.8-4-3.9l0.8-25.9c0.1-2.1 2-3.9 4.2-3.9h31.3c2.3 0 4 1.7 4 3.9l-0.7 25.9c0 2.2-1.8 3.9-4.1 3.9zM335.7 537.7h-31.5c-2.3 0-4.1-1.8-4-3.9l0.7-25.9c0.1-2.1 1.9-3.9 4.2-3.9h31.3c2.3 0 4 1.7 4 3.9l-0.5 25.9c-0.1 2.2-2 3.9-4.2 3.9zM390.1 537.7h-31.5c-2.3 0-4.1-1.8-4-3.9l0.5-25.9c0-2.1 1.9-3.9 4.2-3.9h31.3c2.3 0 4.1 1.7 4 3.9l-0.4 25.9c0 2.2-1.9 3.9-4.1 3.9zM444.5 537.7H413c-2.3 0-4.1-1.8-4.1-3.9l0.3-25.9c0-2.1 1.9-3.9 4.1-3.9h31.3c2.3 0 4.1 1.7 4.1 3.9l-0.2 25.9c0.1 2.2-1.8 3.9-4 3.9zM498.9 537.7h-31.5c-2.3 0-4.1-1.8-4.1-3.9l0.2-25.9c0-2.1 1.9-3.9 4.1-3.9h31.3c2.3 0 4.1 1.7 4.1 3.9v25.9c0 2.2-1.9 3.9-4.1 3.9zM553.2 537.7h-31.5c-2.3 0-4.1-1.8-4.1-3.9v-25.9c0-2.1 1.8-3.9 4.1-3.9H553c2.3 0 4.1 1.7 4.1 3.9l0.1 25.9c0.1 2.2-1.7 3.9-4 3.9zM607.6 537.7h-31.5c-2.3 0-4.1-1.8-4.1-3.9l-0.2-25.9c0-2.1 1.8-3.9 4.1-3.9h31.3c2.3 0 4.1 1.7 4.1 3.9l0.3 25.9c0.1 2.2-1.7 3.9-4 3.9zM662 537.7h-31.5c-2.3 0-4.1-1.8-4.2-3.9l-0.3-25.9c0-2.1 1.8-3.9 4-3.9h31.3c2.3 0 4.1 1.7 4.2 3.9l0.5 25.9c0.1 2.2-1.7 3.9-4 3.9zM740.9 537.7H685c-2.3 0-4.1-1.8-4.2-3.9l-0.5-25.9c0-2.1 1.8-3.9 4-3.9H740c2.3 0 4.1 1.7 4.2 3.9l0.7 25.9c0.1 2.2-1.7 3.9-4 3.9z" fill="#99D3FF" p-id="3011"></path><path d="M264.7 586.5H108.9c-2.3 0-4-1.6-3.9-3.6l1.3-23.9c0.1-2 2-3.6 4.3-3.6h155.2c2.3 0 4.1 1.6 4 3.6l-0.8 23.9c-0.1 2-2 3.6-4.3 3.6z" fill="#FFE164" p-id="3012"></path><path d="M319.7 587.7H288c-2.3 0-4.1-1.7-4-3.8l0.7-25.1c0.1-2.1 1.9-3.8 4.2-3.8h31.5c2.3 0 4.1 1.7 4 3.8l-0.6 25.1c0 2.1-1.8 3.8-4.1 3.8zM374.4 587.7h-31.6c-2.3 0-4.1-1.7-4-3.8l0.5-25.1c0-2.1 1.9-3.8 4.2-3.8H375c2.3 0 4.1 1.7 4 3.8l-0.4 25.1c-0.1 2.1-1.9 3.8-4.2 3.8zM429.1 587.7h-31.6c-2.3 0-4.1-1.7-4.1-3.8l0.4-25.1c0-2.1 1.9-3.8 4.2-3.8h31.5c2.3 0 4.1 1.7 4.1 3.8l-0.3 25.1c0 2.1-1.9 3.8-4.2 3.8zM483.8 587.7h-31.6c-2.3 0-4.1-1.7-4.1-3.8l0.2-25.1c0-2.1 1.9-3.8 4.1-3.8H484c2.3 0 4.1 1.7 4.1 3.8L488 584c0 2-1.9 3.7-4.2 3.7zM538.5 587.7h-31.6c-2.3 0-4.1-1.7-4.1-3.8v-25.1c0-2.1 1.8-3.8 4.1-3.8h31.5c2.3 0 4.1 1.7 4.1 3.8l0.1 25.1c0.1 2.1-1.8 3.8-4.1 3.8zM593.3 587.7h-31.6c-2.3 0-4.1-1.7-4.1-3.8l-0.1-25.1c0-2.1 1.8-3.8 4.1-3.8h31.5c2.3 0 4.1 1.7 4.1 3.8l0.3 25.1c-0.1 2.1-2 3.8-4.2 3.8zM648 587.7h-31.6c-2.3 0-4.1-1.7-4.2-3.8l-0.3-25.1c0-2.1 1.8-3.8 4.1-3.8h31.5c2.3 0 4.1 1.7 4.2 3.8l0.3 25.2c0.1 2-1.8 3.7-4 3.7z" fill="#99D3FF" p-id="3013"></path><path d="M742.5 587.7H671c-2.3 0-4.2-1.7-4.2-3.8l-0.5-25.1c0-2.1 1.8-3.8 4-3.8h71.2c2.3 0 4.2 1.7 4.2 3.8l0.7 25.1c0.2 2.1-1.6 3.8-3.9 3.8z" fill="#FFE164" p-id="3014"></path><path d="M150.5 357.3h-30.8c-2.2 0-3.9-1.7-3.8-3.7l1.2-24.6c0.1-2 2-3.7 4.2-3.7H152c2.2 0 3.9 1.7 3.8 3.7l-1.1 24.6c-0.1 2.1-2 3.7-4.2 3.7zM147.3 431.7h-31.1c-2.2 0-4-1.7-3.9-3.7l1.2-24.8c0.1-2.1 2-3.7 4.2-3.7h31c2.2 0 4 1.7 3.9 3.7l-1.1 24.8c0 2-1.9 3.7-4.2 3.7zM198.9 483h-85.1c-2.3 0-4-1.7-3.9-3.9l1.2-25.5c0.1-2.1 2-3.8 4.2-3.8H200c2.2 0 4 1.7 3.9 3.8l-1 25.5c0.2 2.2-1.7 3.9-4 3.9zM201.1 431.7H170c-2.2 0-4-1.7-3.9-3.7l1.1-24.8c0.1-2.1 2-3.7 4.2-3.7h31c2.2 0 4 1.7 3.9 3.7l-0.9 24.8c-0.2 2-2.1 3.7-4.3 3.7zM254.8 431.7h-31.1c-2.2 0-4-1.7-3.9-3.7l0.9-24.8c0.1-2.1 1.9-3.7 4.2-3.7h31c2.2 0 4 1.7 3.9 3.7L259 428c-0.1 2-2 3.7-4.2 3.7zM308.5 431.7h-31.1c-2.2 0-4-1.7-3.9-3.7l0.7-24.8c0.1-2.1 1.9-3.7 4.1-3.7h31c2.2 0 4 1.7 3.9 3.7l-0.6 24.8c0 2-1.8 3.7-4.1 3.7zM362.3 431.7h-31.1c-2.2 0-4-1.7-4-3.7l0.6-24.8c0-2.1 1.9-3.7 4.1-3.7h31c2.2 0 4 1.7 4 3.7l-0.5 24.8c0 2-1.9 3.7-4.1 3.7zM416 431.7h-31.1c-2.2 0-4-1.7-4-3.7l0.4-24.8c0-2.1 1.9-3.7 4.1-3.7h31c2.2 0 4 1.7 4 3.7l-0.3 24.8c0 2-1.8 3.7-4.1 3.7zM469.8 431.7h-31.1c-2.2 0-4-1.7-4-3.7l0.2-24.8c0-2.1 1.8-3.7 4.1-3.7h31c2.2 0 4 1.7 4 3.7l-0.1 24.8c-0.1 2-1.9 3.7-4.1 3.7zM523.5 431.7h-31.1c-2.2 0-4-1.7-4-3.7l0.1-24.8c0-2.1 1.8-3.7 4-3.7h31c2.2 0 4 1.7 4 3.7V428c0 2-1.8 3.7-4 3.7zM577.2 431.7h-31.1c-2.2 0-4.1-1.7-4.1-3.7l-0.1-24.8c0-2.1 1.8-3.7 4-3.7h31c2.2 0 4 1.7 4.1 3.7l0.2 24.8c0.1 2-1.7 3.7-4 3.7zM631 431.7h-31.1c-2.2 0-4.1-1.7-4.1-3.7l-0.2-24.8c0-2.1 1.8-3.7 4-3.7h31c2.2 0 4.1 1.7 4.1 3.7l0.3 24.8c0 2-1.8 3.7-4 3.7zM738.5 431.7h-85.3c-2.2 0-4.1-1.7-4.1-3.7l-0.4-24.8c0-2.1 1.7-3.7 4-3.7h84.9c2.2 0 4.1 1.7 4.1 3.7l0.7 24.8c0.1 2-1.7 3.7-3.9 3.7zM253.2 483H222c-2.3 0-4-1.7-3.9-3.9l0.9-25.5c0.1-2.1 2-3.8 4.2-3.8h31.1c2.2 0 4 1.7 3.9 3.8l-0.8 25.5c0 2.2-1.9 3.9-4.2 3.9zM307.3 483H276c-2.3 0-4-1.7-4-3.9l0.7-25.5c0.1-2.1 1.9-3.8 4.2-3.8H308c2.2 0 4 1.7 4 3.8l-0.6 25.5c0 2.2-1.9 3.9-4.1 3.9zM361.4 483h-31.3c-2.3 0-4-1.7-4-3.9l0.6-25.5c0-2.1 1.9-3.8 4.1-3.8H362c2.2 0 4 1.7 4 3.8l-0.5 25.5c0 2.2-1.9 3.9-4.1 3.9zM415.4 483h-31.3c-2.3 0-4-1.7-4-3.9l0.4-25.5c0-2.1 1.9-3.8 4.1-3.8h31.1c2.2 0 4 1.7 4 3.8l-0.3 25.5c0.1 2.2-1.7 3.9-4 3.9zM469.5 483h-31.3c-2.3 0-4.1-1.7-4-3.9l0.2-25.5c0-2.1 1.9-3.8 4.1-3.8h31.1c2.2 0 4.1 1.7 4 3.8l-0.1 25.5c0.1 2.2-1.8 3.9-4 3.9zM523.5 483h-31.3c-2.3 0-4.1-1.7-4.1-3.9l0.1-25.5c0-2.1 1.8-3.8 4.1-3.8h31.1c2.2 0 4.1 1.7 4.1 3.8v25.5c0.1 2.2-1.7 3.9-4 3.9zM577.6 483h-31.3c-2.3 0-4.1-1.7-4.1-3.9l-0.1-25.5c0-2.1 1.8-3.8 4-3.8h31.1c2.2 0 4.1 1.7 4.1 3.8l0.2 25.5c0.2 2.2-1.6 3.9-3.9 3.9zM631.7 483h-31.3c-2.3 0-4.1-1.7-4.1-3.9l-0.2-25.5c0-2.1 1.8-3.8 4-3.8h31.1c2.2 0 4.1 1.7 4.1 3.8l0.4 25.5c0 2.2-1.8 3.9-4 3.9zM685.7 483h-31.3c-2.3 0-4.1-1.7-4.1-3.9l-0.4-25.5c0-2.1 1.8-3.8 4-3.8H685c2.2 0 4.1 1.7 4.1 3.8l0.5 25.5c0.2 2.2-1.6 3.9-3.9 3.9zM739.8 483h-31.3c-2.3 0-4.1-1.7-4.2-3.9l-0.6-25.5c0-2.1 1.7-3.8 4-3.8h31.1c2.2 0 4.1 1.7 4.2 3.8l0.7 25.5c0.1 2.2-1.7 3.9-3.9 3.9zM253.9 357.3h-30.8c-2.2 0-4-1.7-3.9-3.7l0.9-24.6c0.1-2 1.9-3.7 4.1-3.7h30.7c2.2 0 3.9 1.7 3.9 3.7l-0.8 24.6c-0.1 2.1-1.9 3.7-4.1 3.7zM309.6 357.3h-30.8c-2.2 0-4-1.7-3.9-3.7l0.7-24.6c0.1-2 1.9-3.7 4.1-3.7h30.7c2.2 0 4 1.7 3.9 3.7l-0.6 24.6c0 2.1-1.9 3.7-4.1 3.7zM365.4 357.3h-30.8c-2.2 0-4-1.7-3.9-3.7l0.6-24.6c0-2 1.9-3.7 4.1-3.7h30.7c2.2 0 4 1.7 3.9 3.7l-0.4 24.6c-0.2 2.1-2 3.7-4.2 3.7zM421.1 357.3h-30.8c-2.2 0-4-1.7-4-3.7l0.4-24.6c0-2 1.8-3.7 4.1-3.7h30.7c2.2 0 4 1.7 4 3.7l-0.3 24.6c-0.1 2.1-1.9 3.7-4.1 3.7zM527 357.3h-30.8c-2.2 0-4-1.7-4-3.7l0.1-24.6c0-2 1.8-3.7 4-3.7H527c2.2 0 4 1.7 4 3.7v24.6c0 2.1-1.8 3.7-4 3.7zM582.8 357.3H552c-2.2 0-4-1.7-4-3.7l-0.1-24.6c0-2 1.8-3.7 4-3.7h30.7c2.2 0 4 1.7 4 3.7l0.2 24.6c0 2.1-1.8 3.7-4 3.7zM638.5 357.3h-30.8c-2.2 0-4-1.7-4.1-3.7l-0.3-24.6c0-2 1.8-3.7 4-3.7H638c2.2 0 4 1.7 4.1 3.7l0.4 24.6c0 2.1-1.8 3.7-4 3.7zM694.2 357.3h-30.8c-2.2 0-4-1.7-4.1-3.7l-0.4-24.6c0-2 1.7-3.7 3.9-3.7h30.7c2.2 0 4 1.7 4.1 3.7l0.5 24.6c0.1 2.1-1.6 3.7-3.9 3.7zM800.2 357.3h-30.8c-2.2 0-4.1-1.7-4.1-3.7l-0.7-24.6c-0.1-2 1.7-3.7 3.9-3.7H799c2.2 0 4.1 1.7 4.1 3.7l0.9 24.6c0.1 2.1-1.6 3.7-3.8 3.7zM855.9 357.3h-30.8c-2.2 0-4.1-1.7-4.2-3.7L820 329c-0.1-2 1.7-3.7 3.9-3.7h30.7c2.2 0 4.1 1.7 4.2 3.7l1 24.6c0 2.1-1.7 3.7-3.9 3.7zM911.6 357.3h-30.8c-2.2 0-4.1-1.7-4.2-3.7l-1.1-24.6c-0.1-2 1.6-3.7 3.8-3.7H910c2.2 0 4.1 1.7 4.2 3.7l1.2 24.6c0.2 2.1-1.5 3.7-3.8 3.7zM802.6 431.7h-31.1c-2.2 0-4.1-1.7-4.2-3.7l-0.8-24.8c-0.1-2.1 1.7-3.7 3.9-3.7h31c2.2 0 4.1 1.7 4.2 3.7l0.9 24.8c0.1 2-1.6 3.7-3.9 3.7zM858.9 431.7h-31.1c-2.2 0-4.1-1.7-4.2-3.7l-0.9-24.8c-0.1-2.1 1.7-3.7 3.9-3.7h31c2.2 0 4.1 1.7 4.2 3.7l1.1 24.8c-0.1 2-1.8 3.7-4 3.7zM915.1 431.7H884c-2.2 0-4.1-1.7-4.2-3.7l-1.1-24.8c-0.1-2.1 1.6-3.7 3.9-3.7h31c2.2 0 4.1 1.7 4.2 3.7L919 428c0.1 2-1.7 3.7-3.9 3.7zM804.3 483H773c-2.3 0-4.1-1.7-4.2-3.9l-0.8-25.5c-0.1-2.1 1.7-3.8 3.9-3.8H803c2.2 0 4.1 1.7 4.2 3.8l0.9 25.5c0.2 2.2-1.5 3.9-3.8 3.9zM860.9 483h-31.3c-2.3 0-4.1-1.7-4.2-3.9l-0.9-25.5c-0.1-2.1 1.7-3.8 3.9-3.8h31.1c2.2 0 4.1 1.7 4.2 3.8l1.1 25.5c0.1 2.2-1.7 3.9-3.9 3.9zM917.4 483h-31.3c-2.3 0-4.2-1.7-4.2-3.9l-1.1-25.5c-0.1-2.1 1.7-3.8 3.9-3.8h31.1c2.2 0 4.1 1.7 4.2 3.8l1.2 25.5c0.2 2.2-1.5 3.9-3.8 3.9z" fill="#99D3FF" p-id="3015"></path><path d="M578.7 644H287.3c-2.3 0-4.1-1.8-4-3.9l0.7-26c0.1-2.2 2-3.9 4.2-3.9h290.3c2.3 0 4.1 1.7 4.2 3.9l0.2 26c0 2.1-1.9 3.9-4.2 3.9zM142.4 644h-35.6c-2.3 0-4.1-1.8-4-3.9l1.3-26c0.1-2.2 2-3.9 4.3-3.9h35.4c2.3 0 4.1 1.7 4 3.9l-1.1 26c0 2.1-2 3.9-4.3 3.9zM202.6 644H167c-2.3 0-4.1-1.8-4-3.9l1.1-26c0.1-2.2 2-3.9 4.3-3.9h35.4c2.3 0 4.1 1.7 4 3.9l-1 26c0 2.1-1.9 3.9-4.2 3.9zM262.8 644h-35.6c-2.3 0-4.1-1.8-4-3.9l0.9-26c0.1-2.2 2-3.9 4.3-3.9h35.4c2.3 0 4.1 1.7 4 3.9l-0.8 26c0 2.1-1.9 3.9-4.2 3.9zM634.8 644h-31.5c-2.3 0-4.2-1.8-4.2-3.9l-0.3-26c0-2.2 1.8-3.9 4.1-3.9h31.4c2.3 0 4.2 1.7 4.2 3.9l0.4 26c0 2.1-1.8 3.9-4.1 3.9zM689.4 644h-31.5c-2.3 0-4.2-1.8-4.2-3.9l-0.4-26c0-2.2 1.8-3.9 4.1-3.9h31.4c2.3 0 4.2 1.7 4.2 3.9l0.6 26c-0.1 2.1-1.9 3.9-4.2 3.9zM744 644h-31.5c-2.3 0-4.2-1.8-4.2-3.9l-0.6-26c0-2.2 1.8-3.9 4-3.9H743c2.3 0 4.2 1.7 4.2 3.9l0.7 26c0.2 2.1-1.6 3.9-3.9 3.9zM809.6 644h-31.8c-2.3 0-4.2-1.8-4.3-3.9l-0.8-26c-0.1-2.2 1.7-3.9 4-3.9h31.7c2.3 0 4.2 1.7 4.3 3.9l0.9 26c0.1 2.1-1.7 3.9-4 3.9zM867.2 644h-31.8c-2.3 0-4.2-1.8-4.3-3.9l-1-26c-0.1-2.2 1.7-3.9 4-3.9h31.7c2.3 0 4.2 1.7 4.3 3.9l1.1 26c0.1 2.1-1.7 3.9-4 3.9zM924.8 644H893c-2.3 0-4.2-1.8-4.3-3.9l-1.2-26c-0.1-2.2 1.7-3.9 4-3.9h31.7c2.3 0 4.2 1.7 4.3 3.9l1.3 26c0.1 2.1-1.7 3.9-4 3.9z" fill="#99D3FF" p-id="3016"></path><path d="M865.1 591.8h-31.6c-2.3 0-4.2-1.8-4.3-4.1l-1-27.1c-0.1-2.2 1.7-4.1 4-4.1h31.5c2.3 0 4.2 1.8 4.3 4.1l1.1 27.1c0.1 2.3-1.7 4.1-4 4.1z" fill="#99D3FF" p-id="3017"></path></svg>