<?xml version="1.0" standalone="no"?><!DOCTYPE svg PUBLIC "-//W3C//DTD SVG 1.1//EN" "http://www.w3.org/Graphics/SVG/1.1/DTD/svg11.dtd"><svg t="1677323916134" class="icon" viewBox="0 0 1024 1024" version="1.1" xmlns="http://www.w3.org/2000/svg" p-id="3923" xmlns:xlink="http://www.w3.org/1999/xlink" width="200" height="200"><path d="M245.5 264.7H2V128h660.4v136.7H408.6v629.4H245.5V264.7zM1005.1 436.4v67.2H873.5c-24.9 0-43.9-1.3-57.1-4-46.3-9-79.3-34.8-98.9-77.4-12.8-28.6-19.2-64-19.2-106.2 0-50.5 9.8-91.5 29.4-123.2 14.3-23 33.4-39.7 57.4-50.3 23.9-10.5 54.7-15.8 92.4-15.8h127.7v67.2H886.5c-35.8 0-62 9.6-78.5 28.8-14 15.9-21 44.5-21 86 0 55.8 10.7 92.3 32.2 109.6 15.1 12.1 38.6 18.1 70.6 18.1h115.3zM763.8 762.4v131.7h-80.2V517.2h188.2c34.3 0 58.8 2.5 73.5 7.3 24.9 8.3 44.4 25.4 58.8 51.4 10.5 19.6 15.8 40.9 15.8 63.9 0 19.2-3.5 37.4-10.5 54.5s-16.7 31.2-29.1 42.1c-11.3 9.8-23.3 16.6-35.9 20.3-12.6 3.8-29.9 5.7-51.7 5.7H763.8z m0-67.2h109.1c19.6 0 33.3-3 41.2-9 11.7-9.4 17.5-25.8 17.5-49.2 0-25.2-8.9-41.4-26.6-48.6-6.4-2.6-16.6-4-30.5-4H763.8v110.8z" p-id="3924" fill="#1296db"></path></svg>