<?xml version="1.0" standalone="no"?><!DOCTYPE svg PUBLIC "-//W3C//DTD SVG 1.1//EN" "http://www.w3.org/Graphics/SVG/1.1/DTD/svg11.dtd"><svg t="1678541618629" class="icon" viewBox="0 0 1024 1024" version="1.1" xmlns="http://www.w3.org/2000/svg" p-id="3213" width="200" height="200" xmlns:xlink="http://www.w3.org/1999/xlink"><path d="M879.9 386.2v-64.1h-53.3V204.6c0-3.5-2.9-6.4-6.4-6.4H202.7c-3.5 0-6.4 2.9-6.4 6.4v617.5c0 3.5 2.9 6.4 6.4 6.4h117.4V882h64.1v-53.5h254.4V882h64.1v-53.5h117.4c3.5 0 6.4-2.9 6.4-6.4V704.7h53.3v-64.1h-53.3V386.2h53.4zM762.4 764.4h-502v-502h502v502z" fill="#1296db" p-id="3214"></path><path d="M320.1 144.8h64.1v53.5h-64.1zM638.6 144.8h64.1v53.5h-64.1zM142.7 322.1h53.5v64.1h-53.5zM142.7 640.6h53.5v64.1h-53.5zM358.7 675.6h305.4c3.6 0 6.5-2.9 6.5-6.5V363.6c0-3.6-2.9-6.5-6.5-6.5H358.7c-3.6 0-6.5 2.9-6.5 6.5V669c0 3.7 2.9 6.6 6.5 6.6z m57.6-254.4h190.3v190.3H416.3V421.2z" fill="#1296db" p-id="3215"></path></svg>