<?xml version="1.0" standalone="no"?><!DOCTYPE svg PUBLIC "-//W3C//DTD SVG 1.1//EN" "http://www.w3.org/Graphics/SVG/1.1/DTD/svg11.dtd"><svg t="1680364288964" class="icon" viewBox="0 0 1450 1024" version="1.1" xmlns="http://www.w3.org/2000/svg" p-id="3516" xmlns:xlink="http://www.w3.org/1999/xlink" width="283.203125" height="200"><path d="M456.533333 324.266667l465.066667 217.6c4.266667 4.266667 12.8 4.266667 17.066667 4.266666s12.8 0 17.066666-4.266666l465.066667-217.6c17.066667-8.533333 29.866667-25.6 29.866667-51.2 0-21.333333-12.8-42.666667-29.866667-51.2L955.733333 4.266667c-4.266667-4.266667-8.533333-4.266667-17.066666-4.266667s-12.8 0-17.066667 4.266667L456.533333 221.866667c-17.066667 8.533333-29.866667 29.866667-29.866666 51.2 0 25.6 12.8 42.666667 29.866666 51.2zM1403.733333 695.466667c-8.533333 0-12.8 0-17.066666 4.266666L938.666667 908.8l-443.733334-209.066667c-4.266667-4.266667-12.8-4.266667-17.066666-4.266666-25.6 0-46.933333 25.6-46.933334 55.466666 0 21.333333 12.8 42.666667 29.866667 51.2l465.066667 217.6c0 4.266667 4.266667 4.266667 12.8 4.266667s12.8 0 17.066666-4.266667l465.066667-217.6c17.066667-8.533333 29.866667-29.866667 29.866667-51.2 0-29.866667-21.333333-55.466667-46.933334-55.466666z" fill="#1296db" p-id="3517"></path><path d="M1403.733333 456.533333c-8.533333 0-12.8 0-17.066666 4.266667l-448 213.333333-443.733334-209.066666c-4.266667-4.266667-12.8-4.266667-17.066666-4.266667-25.6 0-46.933333 25.6-46.933334 55.466667 0 21.333333 12.8 42.666667 29.866667 51.2l465.066667 217.6c4.266667 4.266667 12.8 4.266667 17.066666 4.266666s12.8 0 17.066667-4.266666l465.066667-217.6c12.8-12.8 25.6-34.133333 25.6-55.466667 0-29.866667-21.333333-55.466667-46.933334-55.466667zM273.066667 904.533333H64V157.866667h119.466667l-42.666667 38.4c-8.533333 8.533333-12.8 17.066667-12.8 25.6 0 21.333333 12.8 34.133333 34.133333 34.133333 8.533333 0 17.066667-4.266667 21.333334-8.533333l106.666666-98.133334c4.266667-4.266667 8.533333-12.8 8.533334-21.333333s-4.266667-17.066667-12.8-25.6L183.466667 8.533333C174.933333 4.266667 166.4 0 162.133333 0c-21.333333 0-34.133333 12.8-34.133333 34.133333 0 8.533333 4.266667 17.066667 12.8 21.333334l42.666667 38.4H34.133333c-21.333333 4.266667-34.133333 17.066667-34.133333 34.133333v810.666667c0 17.066667 12.8 34.133333 34.133333 34.133333h243.2c17.066667 0 29.866667-12.8 29.866667-34.133333s-17.066667-34.133333-34.133333-34.133334z" fill="#1296db" p-id="3518"></path></svg>